<svg width="612" height="202" viewBox="0 0 612 202" fill="none" xmlns="http://www.w3.org/2000/svg">
<path d="M15.2773 120.109V122.041C13.8916 121.551 12.7298 121.306 11.792 121.306C8.67057 121.306 7.10986 123.301 7.10986 127.29V129.684H10.8472V131.363H7.10986V149H5.05225V131.363H1.48291V129.684H5.05225V126.513C5.05225 124.288 5.69613 122.531 6.98389 121.243C8.28564 119.941 9.87435 119.291 11.75 119.291C12.7718 119.291 13.9476 119.563 15.2773 120.109Z" fill="white"/>
<path d="M21.918 129.306C24.7175 129.306 27.048 130.264 28.9097 132.182C30.7853 134.1 31.7232 136.493 31.7232 139.363C31.7232 142.218 30.7853 144.605 28.9097 146.522C27.048 148.426 24.7175 149.378 21.918 149.378C19.1185 149.378 16.7739 148.426 14.8843 146.522C13.0086 144.605 12.0708 142.218 12.0708 139.363C12.0708 136.493 13.0086 134.1 14.8843 132.182C16.7739 130.264 19.1185 129.306 21.918 129.306ZM21.918 147.362C24.0876 147.362 25.9002 146.606 27.356 145.095C28.8117 143.569 29.5396 141.658 29.5396 139.363C29.5396 137.081 28.8047 135.171 27.335 133.631C25.8793 132.091 24.0736 131.321 21.918 131.321C19.7344 131.321 17.9077 132.084 16.438 133.61C14.9823 135.136 14.2544 137.053 14.2544 139.363C14.2544 141.658 14.9823 143.569 16.438 145.095C17.9077 146.606 19.7344 147.362 21.918 147.362Z" fill="white"/>
<path d="M48.9668 131.594L47.7701 133.526C46.1604 132.056 44.8656 131.321 43.8858 131.321C41.9541 131.321 39.8895 133.169 37.6919 136.864V149H35.6343V129.684H37.6919V134.765H37.7759C40.0855 131.125 42.3391 129.306 44.5367 129.306C45.7964 129.306 47.2732 130.069 48.9668 131.594Z" fill="white"/>
<path d="M61.2823 119.668H69.3658C72.4592 119.668 74.8248 120.361 76.4625 121.747C78.1142 123.133 78.94 125.022 78.94 127.416C78.94 129.838 78.1072 131.755 76.4415 133.169C74.7898 134.583 72.3612 135.29 69.1558 135.29H63.5499V149H61.2823V119.668ZM63.5499 121.558V133.4H69.0089C71.4584 133.4 73.3201 132.882 74.5938 131.846C75.8676 130.81 76.5045 129.348 76.5045 127.458C76.5045 125.652 75.8816 124.218 74.6358 123.154C73.3901 122.09 71.6054 121.558 69.2818 121.558H63.5499Z" fill="white"/>
<path d="M88.7091 129.306C91.5086 129.306 93.8391 130.264 95.7008 132.182C97.5764 134.1 98.5143 136.493 98.5143 139.363C98.5143 142.218 97.5764 144.605 95.7008 146.522C93.8391 148.426 91.5086 149.378 88.7091 149.378C85.9096 149.378 83.565 148.426 81.6754 146.522C79.7997 144.605 78.8619 142.218 78.8619 139.363C78.8619 136.493 79.7997 134.1 81.6754 132.182C83.565 130.264 85.9096 129.306 88.7091 129.306ZM88.7091 147.362C90.8787 147.362 92.6913 146.606 94.1471 145.095C95.6028 143.569 96.3307 141.658 96.3307 139.363C96.3307 137.081 95.5958 135.171 94.1261 133.631C92.6703 132.091 90.8647 131.321 88.7091 131.321C86.5255 131.321 84.6988 132.084 83.2291 133.61C81.7734 135.136 81.0455 137.053 81.0455 139.363C81.0455 141.658 81.7734 143.569 83.2291 145.095C84.6988 146.606 86.5255 147.362 88.7091 147.362Z" fill="white"/>
<path d="M104.483 129.684V130.775C106.429 129.796 108.367 129.306 110.299 129.306C113.042 129.306 115.317 130.25 117.123 132.14C118.928 134.03 119.831 136.409 119.831 139.279C119.831 142.106 118.9 144.5 117.039 146.459C115.177 148.405 112.902 149.378 110.215 149.378C108.353 149.378 106.443 148.895 104.483 147.929V158.889H102.425V129.684H104.483ZM104.483 132.749V145.914C106.233 146.879 108.01 147.362 109.816 147.362C112.126 147.362 113.994 146.634 115.422 145.179C116.85 143.723 117.564 141.812 117.564 139.447C117.564 137.095 116.808 135.157 115.296 133.631C113.784 132.091 111.874 131.321 109.564 131.321C107.912 131.321 106.219 131.797 104.483 132.749Z" fill="white"/>
<path d="M137.285 149V145.809H137.201C136.305 147.096 135.381 148.013 134.429 148.559C133.492 149.105 132.295 149.378 130.839 149.378C128.767 149.378 127.053 148.706 125.695 147.362C124.337 146.019 123.658 144.115 123.658 141.651V129.684H125.716V141.609C125.716 143.401 126.206 144.808 127.186 145.83C128.166 146.851 129.439 147.362 131.007 147.362C132.351 147.362 133.492 147.054 134.429 146.438C135.381 145.823 136.333 144.759 137.285 143.247V129.684H139.342V149H137.285Z" fill="white"/>
<path d="M146.508 119.668V149H144.429V119.668H146.508Z" fill="white"/>
<path d="M166.985 145.641V147.362C165.207 148.706 163.906 149.378 163.08 149.378C162.604 149.378 162.275 149.224 162.093 148.916C161.911 148.594 161.778 147.95 161.694 146.984C159.664 148.58 157.649 149.378 155.647 149.378C154.191 149.378 152.96 148.902 151.952 147.95C150.944 146.998 150.44 145.844 150.44 144.486C150.44 142.386 151.413 140.735 153.359 139.531C155.304 138.313 158.083 137.613 161.694 137.431V134.975C161.694 132.343 160.266 131.027 157.411 131.027C155.591 131.027 153.625 131.846 151.511 133.484V131.363C153.695 129.992 155.773 129.306 157.747 129.306C159.496 129.306 160.938 129.74 162.072 130.607C163.206 131.461 163.773 132.707 163.773 134.345V146.375C163.773 147.033 163.927 147.362 164.235 147.362C164.626 147.362 165.543 146.788 166.985 145.641ZM161.694 145.179V139.153C159.049 139.055 156.851 139.524 155.101 140.56C153.366 141.581 152.498 142.89 152.498 144.486C152.498 145.382 152.862 146.138 153.59 146.753C154.317 147.369 155.227 147.677 156.319 147.677C158.083 147.677 159.874 146.844 161.694 145.179Z" fill="white"/>
<path d="M173.038 123.28V129.684H178.455V131.363H173.038V142.848C173.038 144.696 173.185 145.914 173.479 146.501C173.787 147.075 174.599 147.362 175.914 147.362C176.922 147.362 178.098 147.047 179.442 146.417V148.391C178.084 149.049 176.754 149.378 175.452 149.378C174.179 149.378 173.115 149.014 172.261 148.286C171.407 147.558 170.98 146.55 170.98 145.263V131.363H165.773V129.684H170.98V125.085L172.387 123.28H173.038Z" fill="white"/>
<path d="M184.004 119.668V123.196H181.925V119.668H184.004ZM184.004 129.684V149H181.925V129.684H184.004Z" fill="white"/>
<path d="M198.035 129.306C200.834 129.306 203.165 130.264 205.027 132.182C206.902 134.1 207.84 136.493 207.84 139.363C207.84 142.218 206.902 144.605 205.027 146.522C203.165 148.426 200.834 149.378 198.035 149.378C195.235 149.378 192.891 148.426 191.001 146.522C189.126 144.605 188.188 142.218 188.188 139.363C188.188 136.493 189.126 134.1 191.001 132.182C192.891 130.264 195.235 129.306 198.035 129.306ZM198.035 147.362C200.204 147.362 202.017 146.606 203.473 145.095C204.929 143.569 205.656 141.658 205.656 139.363C205.656 137.081 204.922 135.171 203.452 133.631C201.996 132.091 200.19 131.321 198.035 131.321C195.851 131.321 194.025 132.084 192.555 133.61C191.099 135.136 190.371 137.053 190.371 139.363C190.371 141.658 191.099 143.569 192.555 145.095C194.025 146.606 195.851 147.362 198.035 147.362Z" fill="white"/>
<path d="M213.767 129.684V133.043H213.851C215.461 130.551 217.581 129.306 220.213 129.306C222.396 129.306 224.139 130.006 225.441 131.405C226.742 132.805 227.393 134.744 227.393 137.221V149H225.336V137.998C225.336 133.547 223.586 131.321 220.087 131.321C217.525 131.321 215.419 132.7 213.767 135.458V149H211.709V129.684H213.767Z" fill="white"/>
<path d="M234.685 144.822V148.097C234.685 150.645 233.754 152.625 231.892 154.039V152.527C232.494 151.688 232.795 150.512 232.795 149H231.892V144.822H234.685Z" fill="white"/>
<path d="M271.839 119.668V149H269.55V135.101H249.982V149H247.714V119.668H249.982V133.211H269.55V119.668H271.839Z" fill="white"/>
<path d="M293.743 138.628H278.521C278.479 138.964 278.458 139.3 278.458 139.636C278.458 141.791 279.228 143.618 280.768 145.116C282.308 146.613 284.127 147.362 286.227 147.362C288.676 147.362 291.07 146.403 293.408 144.486V146.816C291.196 148.524 288.718 149.378 285.975 149.378C283.189 149.378 280.887 148.412 279.067 146.48C277.248 144.549 276.338 142.092 276.338 139.111C276.338 136.283 277.178 133.946 278.857 132.098C280.537 130.236 282.651 129.306 285.198 129.306C287.592 129.306 289.614 130.146 291.266 131.825C292.918 133.491 293.743 135.758 293.743 138.628ZM278.794 136.969H291.308C290.58 133.204 288.543 131.321 285.198 131.321C283.616 131.321 282.245 131.818 281.083 132.812C279.935 133.792 279.172 135.178 278.794 136.969Z" fill="white"/>
<path d="M312.688 145.641V147.362C310.91 148.706 309.608 149.378 308.783 149.378C308.307 149.378 307.978 149.224 307.796 148.916C307.614 148.594 307.481 147.95 307.397 146.984C305.367 148.58 303.352 149.378 301.35 149.378C299.894 149.378 298.662 148.902 297.655 147.95C296.647 146.998 296.143 145.844 296.143 144.486C296.143 142.386 297.116 140.735 299.061 139.531C301.007 138.313 303.786 137.613 307.397 137.431V134.975C307.397 132.343 305.969 131.027 303.114 131.027C301.294 131.027 299.327 131.846 297.214 133.484V131.363C299.397 129.992 301.476 129.306 303.45 129.306C305.199 129.306 306.641 129.74 307.775 130.607C308.909 131.461 309.475 132.707 309.475 134.345V146.375C309.475 147.033 309.629 147.362 309.937 147.362C310.329 147.362 311.246 146.788 312.688 145.641ZM307.397 145.179V139.153C304.751 139.055 302.554 139.524 300.804 140.56C299.068 141.581 298.201 142.89 298.201 144.486C298.201 145.382 298.564 146.138 299.292 146.753C300.02 147.369 300.93 147.677 302.022 147.677C303.786 147.677 305.577 146.844 307.397 145.179Z" fill="white"/>
<path d="M317.376 119.668V149H315.297V119.668H317.376Z" fill="white"/>
<path d="M326.2 123.28V129.684H331.617V131.363H326.2V142.848C326.2 144.696 326.347 145.914 326.641 146.501C326.949 147.075 327.761 147.362 329.077 147.362C330.084 147.362 331.26 147.047 332.604 146.417V148.391C331.246 149.049 329.916 149.378 328.615 149.378C327.341 149.378 326.277 149.014 325.423 148.286C324.569 147.558 324.142 146.55 324.142 145.263V131.363H318.935V129.684H324.142V125.085L325.549 123.28H326.2Z" fill="white"/>
<path d="M336.809 119.668V133.043H336.893C338.503 130.551 340.623 129.306 343.255 129.306C345.438 129.306 347.181 130.006 348.483 131.405C349.785 132.805 350.435 134.73 350.435 137.179V149H348.378V137.998C348.378 133.547 346.628 131.321 343.129 131.321C340.623 131.321 338.517 132.7 336.809 135.458V149H334.751V119.668H336.809Z" fill="white"/>
<path d="M385.679 134.387H388.093C387.183 137.242 385.84 140.007 384.062 142.68L390.025 149H387.148L382.718 144.402C379.849 147.719 376.482 149.378 372.619 149.378C370.324 149.378 368.469 148.741 367.055 147.467C365.655 146.18 364.956 144.5 364.956 142.428C364.956 138.579 367.377 135.597 372.22 133.484C369.785 130.95 368.567 128.669 368.567 126.639C368.567 124.847 369.239 123.336 370.582 122.104C371.926 120.858 373.578 120.235 375.538 120.235C377.385 120.235 378.911 120.816 380.115 121.978C381.332 123.126 381.941 124.568 381.941 126.303C381.941 129.411 379.891 132 375.79 134.072L382.466 141C383.796 139.013 384.867 136.808 385.679 134.387ZM374.341 132.497C378.008 130.971 379.842 128.977 379.842 126.513C379.842 125.323 379.422 124.33 378.582 123.532C377.742 122.734 376.685 122.335 375.412 122.335C374.096 122.335 372.99 122.741 372.094 123.553C371.212 124.351 370.771 125.337 370.771 126.513C370.771 128.333 371.961 130.327 374.341 132.497ZM381.165 142.806L373.732 135.059C371.548 135.996 369.946 137.011 368.924 138.103C367.916 139.195 367.412 140.532 367.412 142.113C367.412 143.737 367.909 145.004 368.903 145.914C369.911 146.823 371.303 147.278 373.081 147.278C376.02 147.278 378.715 145.788 381.165 142.806Z" fill="white"/>
<path d="M418.171 121.138V123.637C415.624 122.139 413.433 121.39 411.6 121.39C409.836 121.39 408.359 121.929 407.169 123.007C405.994 124.071 405.406 125.393 405.406 126.975C405.406 128.109 405.756 129.131 406.456 130.041C407.155 130.95 408.618 131.825 410.844 132.665C413.069 133.505 414.693 134.205 415.715 134.765C416.737 135.325 417.604 136.136 418.318 137.2C419.032 138.264 419.389 139.643 419.389 141.336C419.389 143.59 418.563 145.494 416.912 147.047C415.26 148.601 413.244 149.378 410.865 149.378C408.429 149.378 405.924 148.524 403.348 146.816V144.15C406.19 146.236 408.653 147.278 410.739 147.278C412.474 147.278 413.937 146.718 415.127 145.599C416.331 144.465 416.933 143.079 416.933 141.441C416.933 140.196 416.562 139.076 415.82 138.082C415.078 137.074 413.573 136.136 411.306 135.269C409.038 134.401 407.414 133.701 406.435 133.169C405.469 132.637 404.643 131.881 403.957 130.901C403.285 129.908 402.949 128.634 402.949 127.08C402.949 124.924 403.775 123.091 405.427 121.579C407.078 120.053 409.066 119.291 411.39 119.291C413.671 119.291 415.932 119.906 418.171 121.138Z" fill="white"/>
<path d="M436.822 149V145.809H436.738C435.842 147.096 434.918 148.013 433.966 148.559C433.029 149.105 431.832 149.378 430.376 149.378C428.304 149.378 426.59 148.706 425.232 147.362C423.874 146.019 423.195 144.115 423.195 141.651V129.684H425.253V141.609C425.253 143.401 425.743 144.808 426.723 145.83C427.703 146.851 428.976 147.362 430.544 147.362C431.888 147.362 433.029 147.054 433.966 146.438C434.918 145.823 435.87 144.759 436.822 143.247V129.684H438.879V149H436.822Z" fill="white"/>
<path d="M454.254 130.943V133.169C452.295 131.853 450.531 131.195 448.963 131.195C447.802 131.195 446.822 131.51 446.024 132.14C445.226 132.77 444.827 133.547 444.827 134.471C444.827 135.129 445.065 135.737 445.541 136.297C446.031 136.843 447.368 137.536 449.551 138.376C451.749 139.216 453.184 140.091 453.855 141C454.527 141.91 454.863 142.925 454.863 144.045C454.863 145.543 454.254 146.809 453.037 147.845C451.819 148.867 450.314 149.378 448.522 149.378C446.577 149.378 444.645 148.79 442.728 147.614V145.599C445.009 146.774 447.032 147.362 448.795 147.362C449.985 147.362 450.958 147.047 451.714 146.417C452.484 145.788 452.869 144.983 452.869 144.003C452.869 143.331 452.617 142.715 452.113 142.155C451.623 141.581 450.279 140.861 448.082 139.993C445.898 139.125 444.477 138.271 443.819 137.431C443.175 136.577 442.854 135.632 442.854 134.597C442.854 133.127 443.455 131.881 444.659 130.859C445.877 129.824 447.354 129.306 449.089 129.306C450.671 129.306 452.393 129.852 454.254 130.943Z" fill="white"/>
<path d="M462.008 123.28V129.684H467.425V131.363H462.008V142.848C462.008 144.696 462.155 145.914 462.449 146.501C462.757 147.075 463.569 147.362 464.884 147.362C465.892 147.362 467.068 147.047 468.412 146.417V148.391C467.054 149.049 465.724 149.378 464.422 149.378C463.149 149.378 462.085 149.014 461.231 148.286C460.377 147.558 459.95 146.55 459.95 145.263V131.363H454.743V129.684H459.95V125.085L461.357 123.28H462.008Z" fill="white"/>
<path d="M485.991 145.641V147.362C484.214 148.706 482.912 149.378 482.086 149.378C481.61 149.378 481.281 149.224 481.099 148.916C480.917 148.594 480.784 147.95 480.7 146.984C478.671 148.58 476.655 149.378 474.653 149.378C473.198 149.378 471.966 148.902 470.958 147.95C469.95 146.998 469.446 145.844 469.446 144.486C469.446 142.386 470.419 140.735 472.365 139.531C474.31 138.313 477.089 137.613 480.7 137.431V134.975C480.7 132.343 479.273 131.027 476.417 131.027C474.597 131.027 472.631 131.846 470.517 133.484V131.363C472.701 129.992 474.779 129.306 476.753 129.306C478.503 129.306 479.944 129.74 481.078 130.607C482.212 131.461 482.779 132.707 482.779 134.345V146.375C482.779 147.033 482.933 147.362 483.241 147.362C483.633 147.362 484.55 146.788 485.991 145.641ZM480.7 145.179V139.153C478.055 139.055 475.857 139.524 474.108 140.56C472.372 141.581 471.504 142.89 471.504 144.486C471.504 145.382 471.868 146.138 472.596 146.753C473.324 147.369 474.233 147.677 475.325 147.677C477.089 147.677 478.881 146.844 480.7 145.179Z" fill="white"/>
<path d="M490.679 119.668V123.196H488.601V119.668H490.679ZM490.679 129.684V149H488.601V129.684H490.679Z" fill="white"/>
<path d="M497.782 129.684V133.043H497.866C499.476 130.551 501.596 129.306 504.228 129.306C506.411 129.306 508.154 130.006 509.456 131.405C510.757 132.805 511.408 134.744 511.408 137.221V149H509.351V137.998C509.351 133.547 507.601 131.321 504.102 131.321C501.54 131.321 499.434 132.7 497.782 135.458V149H495.724V129.684H497.782Z" fill="white"/>
<path d="M531.591 145.641V147.362C529.814 148.706 528.512 149.378 527.686 149.378C527.21 149.378 526.881 149.224 526.699 148.916C526.517 148.594 526.384 147.95 526.3 146.984C524.271 148.58 522.255 149.378 520.254 149.378C518.798 149.378 517.566 148.902 516.558 147.95C515.55 146.998 515.047 145.844 515.047 144.486C515.047 142.386 516.019 140.735 517.965 139.531C519.911 138.313 522.689 137.613 526.3 137.431V134.975C526.3 132.343 524.873 131.027 522.017 131.027C520.198 131.027 518.231 131.846 516.117 133.484V131.363C518.301 129.992 520.38 129.306 522.353 129.306C524.103 129.306 525.545 129.74 526.678 130.607C527.812 131.461 528.379 132.707 528.379 134.345V146.375C528.379 147.033 528.533 147.362 528.841 147.362C529.233 147.362 530.15 146.788 531.591 145.641ZM526.3 145.179V139.153C523.655 139.055 521.457 139.524 519.708 140.56C517.972 141.581 517.104 142.89 517.104 144.486C517.104 145.382 517.468 146.138 518.196 146.753C518.924 147.369 519.834 147.677 520.925 147.677C522.689 147.677 524.481 146.844 526.3 145.179Z" fill="white"/>
<path d="M533.865 147.929V119.668H535.923V132.455C537.98 130.355 540.304 129.306 542.893 129.306C545.413 129.306 547.477 130.188 549.087 131.951C550.697 133.701 551.502 135.961 551.502 138.733C551.502 141.952 550.515 144.535 548.541 146.48C546.582 148.412 543.971 149.378 540.71 149.378C538.568 149.378 536.286 148.895 533.865 147.929ZM535.923 134.765V146.459C537.518 147.061 539.1 147.362 540.668 147.362C543.159 147.362 545.217 146.564 546.841 144.969C548.478 143.359 549.297 141.322 549.297 138.859C549.297 136.577 548.667 134.702 547.407 133.232C546.148 131.762 544.559 131.027 542.641 131.027C540.346 131.027 538.106 132.273 535.923 134.765Z" fill="white"/>
<path d="M557.554 119.668V123.196H555.476V119.668H557.554ZM557.554 129.684V149H555.476V129.684H557.554Z" fill="white"/>
<path d="M565.014 119.668V149H562.935V119.668H565.014Z" fill="white"/>
<path d="M572.473 119.668V123.196H570.395V119.668H572.473ZM572.473 129.684V149H570.395V129.684H572.473Z" fill="white"/>
<path d="M581.298 123.28V129.684H586.715V131.363H581.298V142.848C581.298 144.696 581.445 145.914 581.739 146.501C582.046 147.075 582.858 147.362 584.174 147.362C585.182 147.362 586.358 147.047 587.701 146.417V148.391C586.344 149.049 585.014 149.378 583.712 149.378C582.438 149.378 581.375 149.014 580.521 148.286C579.667 147.558 579.24 146.55 579.24 145.263V131.363H574.033V129.684H579.24V125.085L580.647 123.28H581.298Z" fill="white"/>
<path d="M605.365 129.684L590.92 158.889H588.82L595.56 145.263L587.434 129.684H589.597L596.61 143.205L603.265 129.684H605.365Z" fill="white"/>
<path d="M22.4609 180.536H24.043V191.698C24.043 194.755 23.2471 197.113 21.6553 198.773C20.0635 200.434 18.0029 201.264 15.4736 201.264C12.9541 201.264 10.8984 200.443 9.30664 198.803C7.71484 197.162 6.91895 194.916 6.91895 192.064V180.536H8.51562V192.006C8.51562 194.447 9.16016 196.356 10.4492 197.733C11.748 199.11 13.4229 199.799 15.4736 199.799C17.5439 199.799 19.2236 199.105 20.5127 197.719C21.8115 196.322 22.4609 194.345 22.4609 191.786V180.536Z" fill="white"/>
<path d="M48.6834 180.536V201H47.365L31.823 183.114V201H30.241V180.536H31.5887L47.1014 198.422V180.536H48.6834Z" fill="white"/>
<path d="M56.9176 180.536V201H55.3355V180.536H56.9176Z" fill="white"/>
<path d="M78.9066 180.536L70.3373 201.205H69.8832L61.2699 180.536H62.8666L70.1176 197.851L77.3246 180.536H78.9066Z" fill="white"/>
<path d="M94.5383 180.536V181.854H84.9582V190.043H94.2893V191.376H84.9582V199.682H94.7727V201H83.3762V180.536H94.5383Z" fill="white"/>
<path d="M100.004 180.536H105.248C107.445 180.536 109.125 181.015 110.287 181.972C111.449 182.919 112.03 184.203 112.03 185.824C112.03 188.188 110.731 189.848 108.134 190.805C108.808 191.127 109.716 192.167 110.858 193.925L115.487 201H113.627L110.053 195.39C108.861 193.515 107.934 192.348 107.27 191.889C106.605 191.42 105.634 191.186 104.354 191.186H101.586V201H100.004V180.536ZM101.586 181.854V189.867H104.984C106.713 189.867 108.031 189.521 108.939 188.827C109.857 188.124 110.316 187.133 110.316 185.854C110.316 184.594 109.853 183.612 108.925 182.909C107.997 182.206 106.664 181.854 104.926 181.854H101.586Z" fill="white"/>
<path d="M128.775 181.562V183.305C126.998 182.26 125.47 181.737 124.19 181.737C122.96 181.737 121.929 182.113 121.099 182.865C120.279 183.607 119.869 184.53 119.869 185.634C119.869 186.425 120.113 187.138 120.601 187.772C121.09 188.407 122.11 189.018 123.663 189.604C125.216 190.189 126.348 190.678 127.061 191.068C127.774 191.459 128.38 192.025 128.878 192.768C129.376 193.51 129.625 194.472 129.625 195.653C129.625 197.226 129.049 198.554 127.896 199.638C126.744 200.722 125.338 201.264 123.678 201.264C121.978 201.264 120.23 200.668 118.433 199.477V197.616C120.416 199.071 122.135 199.799 123.59 199.799C124.801 199.799 125.821 199.408 126.651 198.627C127.491 197.836 127.911 196.869 127.911 195.727C127.911 194.857 127.652 194.076 127.135 193.383C126.617 192.68 125.567 192.025 123.985 191.42C122.403 190.814 121.27 190.326 120.587 189.955C119.913 189.584 119.337 189.057 118.858 188.373C118.389 187.68 118.155 186.791 118.155 185.707C118.155 184.203 118.731 182.924 119.884 181.869C121.036 180.805 122.423 180.272 124.044 180.272C125.636 180.272 127.213 180.702 128.775 181.562Z" fill="white"/>
<path d="M136.746 180.536V201H135.164V180.536H136.746Z" fill="white"/>
<path d="M158.076 180.536V181.854H150.4V201H148.803V181.854H141.127V180.536H158.076Z" fill="white"/>
<path d="M177.648 180.536L169.694 190.014V201H168.112V190.014L160.157 180.536H162.076L168.917 188.637L175.729 180.536H177.648Z" fill="white"/>
<path d="M209.334 180.272C212.361 180.272 214.925 181.293 217.024 183.334C219.134 185.365 220.188 187.846 220.188 190.775C220.188 193.695 219.134 196.176 217.024 198.217C214.925 200.248 212.361 201.264 209.334 201.264C206.316 201.264 203.758 200.248 201.658 198.217C199.568 196.176 198.523 193.695 198.523 190.775C198.523 187.846 199.568 185.365 201.658 183.334C203.758 181.293 206.316 180.272 209.334 180.272ZM209.393 199.799C211.941 199.799 214.09 198.93 215.838 197.191C217.596 195.443 218.475 193.305 218.475 190.775C218.475 188.236 217.596 186.098 215.838 184.359C214.09 182.611 211.941 181.737 209.393 181.737C206.834 181.737 204.666 182.611 202.889 184.359C201.121 186.098 200.237 188.236 200.237 190.775C200.237 193.305 201.121 195.443 202.889 197.191C204.666 198.93 206.834 199.799 209.393 199.799Z" fill="white"/>
<path d="M236.523 180.536V181.854H227.573V189.633H235.644V190.951H227.573V201H225.991V180.536H236.523Z" fill="white"/>
<path d="M274.409 181.986V183.715C271.929 182.396 269.497 181.737 267.114 181.737C264.575 181.737 262.451 182.602 260.742 184.33C259.033 186.059 258.179 188.217 258.179 190.805C258.179 193.422 259.038 195.575 260.757 197.265C262.476 198.954 264.668 199.799 267.334 199.799C269.561 199.799 271.987 199.101 274.614 197.704V199.345C272.192 200.624 269.775 201.264 267.363 201.264C264.248 201.264 261.65 200.268 259.57 198.275C257.5 196.273 256.465 193.783 256.465 190.805C256.465 187.807 257.524 185.302 259.644 183.29C261.763 181.278 264.287 180.272 267.217 180.272C269.521 180.272 271.919 180.844 274.409 181.986Z" fill="white"/>
<path d="M289.045 180.39L298.493 201H296.838L293.6 193.925H283.61L280.373 201H278.718L288.166 180.39H289.045ZM293 192.606L288.591 182.968L284.211 192.606H293Z" fill="white"/>
<path d="M304.515 180.536V199.682H314.637V201H302.933V180.536H304.515Z" fill="white"/>
<path d="M320.528 180.536V201H318.946V180.536H320.528Z" fill="white"/>
<path d="M337.668 180.536V181.854H328.718V189.633H336.789V190.951H328.718V201H327.136V180.536H337.668Z" fill="white"/>
<path d="M352.23 180.272C355.258 180.272 357.821 181.293 359.921 183.334C362.03 185.365 363.085 187.846 363.085 190.775C363.085 193.695 362.03 196.176 359.921 198.217C357.821 200.248 355.258 201.264 352.23 201.264C349.213 201.264 346.654 200.248 344.555 198.217C342.465 196.176 341.42 193.695 341.42 190.775C341.42 187.846 342.465 185.365 344.555 183.334C346.654 181.293 349.213 180.272 352.23 180.272ZM352.289 199.799C354.838 199.799 356.986 198.93 358.734 197.191C360.492 195.443 361.371 193.305 361.371 190.775C361.371 188.236 360.492 186.098 358.734 184.359C356.986 182.611 354.838 181.737 352.289 181.737C349.73 181.737 347.562 182.611 345.785 184.359C344.018 186.098 343.134 188.236 343.134 190.775C343.134 193.305 344.018 195.443 345.785 197.191C347.562 198.93 349.73 199.799 352.289 199.799Z" fill="white"/>
<path d="M368.917 180.536H374.161C376.358 180.536 378.038 181.015 379.2 181.972C380.362 182.919 380.943 184.203 380.943 185.824C380.943 188.188 379.644 189.848 377.047 190.805C377.721 191.127 378.629 192.167 379.771 193.925L384.4 201H382.54L378.966 195.39C377.774 193.515 376.846 192.348 376.182 191.889C375.518 191.42 374.547 191.186 373.267 191.186H370.499V201H368.917V180.536ZM370.499 181.854V189.867H373.897C375.626 189.867 376.944 189.521 377.852 188.827C378.77 188.124 379.229 187.133 379.229 185.854C379.229 184.594 378.765 183.612 377.838 182.909C376.91 182.206 375.577 181.854 373.839 181.854H370.499Z" fill="white"/>
<path d="M406.477 180.536V201H405.159L389.617 183.114V201H388.035V180.536H389.382L404.895 198.422V180.536H406.477Z" fill="white"/>
<path d="M414.711 180.536V201H413.129V180.536H414.711Z" fill="white"/>
<path d="M429.42 180.39L438.868 201H437.213L433.976 193.925H423.986L420.748 201H419.093L428.541 180.39H429.42ZM433.375 192.606L428.966 182.968L424.586 192.606H433.375Z" fill="white"/>
<path d="M444.568 198.085V200.37C444.568 202.147 443.919 203.529 442.62 204.516V203.461C443.04 202.875 443.25 202.055 443.25 201H442.62V198.085H444.568Z" fill="white"/>
<path d="M466.402 180.536H470.665C472.901 180.536 474.596 181.005 475.748 181.942C476.9 182.88 477.477 184.174 477.477 185.824C477.477 187.797 476.495 189.315 474.532 190.38C477.687 191.063 479.264 192.792 479.264 195.565C479.264 197.226 478.644 198.549 477.403 199.535C476.173 200.512 474.503 201 472.394 201H466.402V180.536ZM467.984 181.854V190.014H470.182C473.902 190.014 475.763 188.656 475.763 185.941C475.763 183.217 473.883 181.854 470.123 181.854H467.984ZM467.984 191.347V199.682H472.218C473.966 199.682 475.294 199.306 476.202 198.554C477.11 197.802 477.564 196.796 477.564 195.536C477.564 192.743 475.553 191.347 471.529 191.347H467.984Z" fill="white"/>
<path d="M495.452 180.536V181.854H485.872V190.043H495.203V191.376H485.872V199.682H495.686V201H484.29V180.536H495.452Z" fill="white"/>
<path d="M500.918 180.536H506.162C508.359 180.536 510.039 181.015 511.201 181.972C512.363 182.919 512.944 184.203 512.944 185.824C512.944 188.188 511.645 189.848 509.047 190.805C509.721 191.127 510.629 192.167 511.772 193.925L516.401 201H514.541L510.966 195.39C509.775 193.515 508.847 192.348 508.183 191.889C507.519 191.42 506.547 191.186 505.268 191.186H502.5V201H500.918V180.536ZM502.5 181.854V189.867H505.898C507.627 189.867 508.945 189.521 509.853 188.827C510.771 188.124 511.23 187.133 511.23 185.854C511.23 184.594 510.766 183.612 509.838 182.909C508.911 182.206 507.578 181.854 505.839 181.854H502.5Z" fill="white"/>
<path d="M533.351 180.536L523.566 190.746L534.288 201H532.267L521.559 190.775V201H519.977V180.536H521.559V190.717L531.373 180.536H533.351Z" fill="white"/>
<path d="M549.144 180.536V181.854H539.564V190.043H548.895V191.376H539.564V199.682H549.378V201H537.982V180.536H549.144Z" fill="white"/>
<path d="M556.191 180.536V199.682H566.313V201H554.609V180.536H556.191Z" fill="white"/>
<path d="M581.843 180.536V181.854H572.262V190.043H581.594V191.376H572.262V199.682H582.077V201H570.68V180.536H581.843Z" fill="white"/>
<path d="M602.425 180.536L594.471 190.014V201H592.889V190.014L584.935 180.536H586.854L593.695 188.637L600.506 180.536H602.425Z" fill="white"/>
<path fill-rule="evenodd" clip-rule="evenodd" d="M606 167H1V165H606V167Z" fill="white"/>
<path d="M30.8813 89H1.5498V2.36963H24.2461C31.3981 2.36963 36.9792 3.34115 40.9893 5.28418C44.9993 7.18587 48.0586 9.83171 50.167 13.2217C52.2754 16.5703 53.3296 20.4564 53.3296 24.8799C53.3296 33.3962 48.9268 39.494 40.1211 43.1733C46.4463 44.3722 51.4692 46.9767 55.1899 50.9868C58.952 54.9969 60.833 59.7925 60.833 65.3735C60.833 69.797 59.6961 73.7451 57.4224 77.2178C55.1486 80.6904 51.8 83.5223 47.3765 85.7134C42.9943 87.9045 37.4959 89 30.8813 89ZM24.6182 13.4077H13.9521V39.4526H22.1997C28.8143 39.4526 33.5065 38.1917 36.2764 35.6699C39.0876 33.1481 40.4932 29.8822 40.4932 25.8721C40.4932 17.5625 35.2015 13.4077 24.6182 13.4077ZM25.5483 50.4907H13.9521V77.9619H26.1685C32.9484 77.9619 37.5373 77.4451 39.9351 76.4116C42.3742 75.3368 44.3172 73.6831 45.7642 71.4507C47.2524 69.2183 47.9966 66.8205 47.9966 64.2573C47.9966 61.6115 47.2111 59.193 45.6401 57.002C44.1105 54.8109 41.9194 53.1779 39.0669 52.103C36.2144 51.0282 31.7082 50.4907 25.5483 50.4907Z" fill="white"/>
<path d="M72.3101 7.95068C74.1705 7.95068 75.7621 8.59147 77.085 9.87305C78.408 11.1546 79.0694 12.7256 79.0694 14.5859C79.0694 16.4049 78.408 17.9759 77.085 19.2988C75.7621 20.6217 74.1705 21.2832 72.3101 21.2832C70.5738 21.2832 69.0442 20.6217 67.7213 19.2988C66.3984 17.9346 65.7369 16.3636 65.7369 14.5859C65.7369 12.8496 66.3984 11.32 67.7213 9.99707C69.0442 8.63281 70.5738 7.95068 72.3101 7.95068ZM66.7291 31.9492H78.0152V89H66.7291V31.9492Z" fill="white"/>
<path d="M128.684 31.9492H143.132L119.63 60.0405L144.807 89H130.358L112.437 68.5361L95.5075 89H81.3068L105.305 60.0405L81.3068 31.9492H95.5075L112.437 51.5449L128.684 31.9492Z" fill="white"/>
<path d="M147.23 2.36963H158.516V36.042C163.395 32.4867 168.604 30.709 174.143 30.709C181.378 30.709 187.29 33.4375 191.879 38.8945C196.468 44.3516 198.762 51.3589 198.762 59.9165C198.762 69.0942 196.013 76.4116 190.514 81.8687C185.057 87.2843 177.74 89.9922 168.562 89.9922C164.883 89.9922 160.997 89.5994 156.904 88.814C152.853 88.0285 149.628 87.0363 147.23 85.8374V2.36963ZM158.516 46.832V77.7139C162.361 78.8714 166.309 79.4502 170.361 79.4502C175.363 79.4502 179.435 77.6725 182.577 74.1172C185.76 70.5618 187.352 65.9937 187.352 60.4126C187.352 54.7489 185.864 50.1393 182.887 46.584C179.952 43.0286 176.107 41.251 171.353 41.251C167.136 41.251 162.857 43.1113 158.516 46.832Z" fill="white"/>
<path d="M241.059 31.9492H253.771L213.402 118.083H200.813L220.223 76.7837L198.147 31.9492H210.983L226.362 64.1333L241.059 31.9492Z" fill="white"/>
<path d="M353.212 68.9082V82.5508C344.117 87.5117 333.616 89.9922 321.71 89.9922C312.036 89.9922 303.83 88.0492 297.091 84.1631C290.353 80.277 285.02 74.9233 281.092 68.1021C277.165 61.2808 275.201 53.9014 275.201 45.9639C275.201 33.3548 279.687 22.7508 288.658 14.1519C297.67 5.5529 308.77 1.25342 321.958 1.25342C331.053 1.25342 341.161 3.63053 352.282 8.38477V21.7173C342.153 15.9295 332.252 13.0356 322.578 13.0356C312.656 13.0356 304.409 16.1776 297.835 22.4614C291.304 28.7039 288.038 36.5381 288.038 45.9639C288.038 55.4723 291.262 63.2858 297.711 69.4043C304.161 75.5228 312.408 78.582 322.454 78.582C332.955 78.582 343.207 75.3574 353.212 68.9082Z" fill="white"/>
<path d="M410.454 61.4668H370.332C370.621 66.9238 372.441 71.2646 375.789 74.4893C379.179 77.7139 383.541 79.3262 388.874 79.3262C396.315 79.3262 403.178 77.0111 409.462 72.3809V83.4189C405.989 85.734 402.537 87.3877 399.106 88.3799C395.716 89.3721 391.726 89.8682 387.137 89.8682C380.853 89.8682 375.768 88.5659 371.882 85.9614C367.996 83.3569 364.875 79.8636 362.519 75.4814C360.204 71.0579 359.046 65.9523 359.046 60.1646C359.046 51.4829 361.506 44.4342 366.425 39.0186C371.345 33.5615 377.732 30.833 385.587 30.833C393.152 30.833 399.188 33.4788 403.694 38.7705C408.201 44.0622 410.454 51.1522 410.454 60.0405V61.4668ZM370.58 54.7075H399.292C399.002 50.2013 397.659 46.7287 395.261 44.2896C392.863 41.8504 389.638 40.6309 385.587 40.6309C381.536 40.6309 378.208 41.8504 375.603 44.2896C373.04 46.7287 371.366 50.2013 370.58 54.7075Z" fill="white"/>
<path d="M428.938 31.9492V39.2046C433.982 33.6235 439.708 30.833 446.115 30.833C449.671 30.833 452.978 31.7632 456.037 33.6235C459.097 35.4425 461.412 37.9644 462.983 41.189C464.595 44.3722 465.401 49.4365 465.401 56.3818V89H454.115V56.5059C454.115 50.6768 453.226 46.522 451.448 44.0415C449.671 41.5197 446.694 40.2588 442.519 40.2588C437.186 40.2588 432.659 42.9253 428.938 48.2583V89H417.404V31.9492H428.938Z" fill="white"/>
<path d="M468.072 41.0029L489.281 20.167V31.9492H507.326V42.1191H489.281V70.0864C489.281 76.6183 491.988 79.8843 497.404 79.8843C501.455 79.8843 505.734 78.52 510.24 75.7915V86.3335C505.9 88.7726 501.166 89.9922 496.04 89.9922C490.872 89.9922 486.573 88.4832 483.141 85.4653C482.066 84.5558 481.178 83.543 480.475 82.4268C479.772 81.2692 479.173 79.7809 478.676 77.9619C478.222 76.1016 477.994 72.5876 477.994 67.4199V42.1191H468.072V41.0029Z" fill="white"/>
<path d="M561.901 61.4668H521.78C522.069 66.9238 523.888 71.2646 527.237 74.4893C530.627 77.7139 534.988 79.3262 540.321 79.3262C547.763 79.3262 554.625 77.0111 560.909 72.3809V83.4189C557.436 85.734 553.984 87.3877 550.553 88.3799C547.163 89.3721 543.174 89.8682 538.585 89.8682C532.301 89.8682 527.216 88.5659 523.33 85.9614C519.444 83.3569 516.323 79.8636 513.966 75.4814C511.651 71.0579 510.493 65.9523 510.493 60.1646C510.493 51.4829 512.953 44.4342 517.873 39.0186C522.792 33.5615 529.18 30.833 537.034 30.833C544.6 30.833 550.636 33.4788 555.142 38.7705C559.648 44.0622 561.901 51.1522 561.901 60.0405V61.4668ZM522.028 54.7075H550.739C550.45 50.2013 549.106 46.7287 546.708 44.2896C544.311 41.8504 541.086 40.6309 537.034 40.6309C532.983 40.6309 529.655 41.8504 527.051 44.2896C524.487 46.7287 522.813 50.2013 522.028 54.7075Z" fill="white"/>
<path d="M581.192 31.9492V45.0337L581.812 44.0415C587.269 35.2358 592.726 30.833 598.183 30.833C602.441 30.833 606.885 32.9827 611.516 37.2822L605.562 47.2041C601.635 43.4834 597.997 41.623 594.648 41.623C591.01 41.623 587.848 43.3594 585.161 46.832C582.515 50.3047 581.192 54.4181 581.192 59.1724V89H569.844V31.9492H581.192Z" fill="white"/>
</svg>
