<svg width="374" height="92" viewBox="0 0 374 92" fill="none" xmlns="http://www.w3.org/2000/svg">
<path d="M108.457 10.9716H113.1V31.0321H108.457V10.9716Z" fill="white"/>
<path d="M137.214 10.9716V31.0321H133.403L123.401 18.8525V31.0321H118.816V10.9716H122.656L132.629 23.1512V10.9716H137.214Z" fill="white"/>
<path d="M142.916 10.9716H147.558V31.0321H142.916V10.9716Z" fill="white"/>
<path d="M157.43 14.7545H151.011V10.9716H168.492V14.7545H162.073V31.0321H157.43V14.7545Z" fill="white"/>
<path d="M171.945 10.9716H176.588V31.0321H171.945V10.9716Z" fill="white"/>
<path d="M195.515 26.7335H186.201L184.424 31.0321H179.667L188.608 10.9716H193.194L202.164 31.0321H197.292L195.515 26.7335ZM194.053 23.2085L190.872 15.5282L187.691 23.2085H194.053Z" fill="white"/>
<path d="M208.348 14.7545H201.929V10.9716H219.41V14.7545H212.991V31.0321H208.348V14.7545Z" fill="white"/>
<path d="M222.863 10.9716H227.506V31.0321H222.863V10.9716Z" fill="white"/>
<path d="M252.397 10.9716L243.713 31.0321H239.128L230.473 10.9716H235.488L241.593 25.3006L247.783 10.9716H252.397Z" fill="white"/>
<path d="M270.559 27.3066V31.0321H255.027V10.9716H270.187V14.6972H259.641V19.0531H268.955V22.664H259.641V27.3066H270.559Z" fill="white"/>
<path d="M289.725 11.3442C288.846 11.3442 288.177 11.583 287.719 12.0606C287.279 12.5383 287.06 13.2452 287.06 14.1813V15.9581H291.702V17.6776H287.117V31.0321H285.082V17.6776H282.388V15.9581H285.082V14.0953C285.082 12.7198 285.474 11.6308 286.257 10.8283C287.06 10.0259 288.187 9.62471 289.639 9.62471C290.212 9.62471 290.766 9.71068 291.301 9.88263C291.836 10.0355 292.285 10.2647 292.648 10.5704L291.96 12.0893C291.368 11.5926 290.623 11.3442 289.725 11.3442Z" fill="white"/>
<path d="M301.314 31.1754C299.862 31.1754 298.554 30.8506 297.388 30.2011C296.223 29.5324 295.306 28.6153 294.637 27.4499C293.968 26.2845 293.634 24.9662 293.634 23.4951C293.634 22.024 293.968 20.7058 294.637 19.5403C295.306 18.3749 296.223 17.4674 297.388 16.8178C298.554 16.1683 299.862 15.8435 301.314 15.8435C302.766 15.8435 304.075 16.1683 305.241 16.8178C306.406 17.4674 307.313 18.3749 307.963 19.5403C308.632 20.7058 308.966 22.024 308.966 23.4951C308.966 24.9662 308.632 26.2845 307.963 27.4499C307.313 28.6153 306.406 29.5324 305.241 30.2011C304.075 30.8506 302.766 31.1754 301.314 31.1754ZM301.314 29.37C302.384 29.37 303.34 29.1312 304.18 28.6535C305.04 28.1568 305.709 27.4595 306.186 26.5615C306.664 25.6636 306.903 24.6414 306.903 23.4951C306.903 22.3488 306.664 21.3267 306.186 20.4287C305.709 19.5308 305.04 18.843 304.18 18.3654C303.34 17.8686 302.384 17.6203 301.314 17.6203C300.244 17.6203 299.28 17.8686 298.42 18.3654C297.579 18.843 296.911 19.5308 296.414 20.4287C295.936 21.3267 295.697 22.3488 295.697 23.4951C295.697 24.6414 295.936 25.6636 296.414 26.5615C296.911 27.4595 297.579 28.1568 298.42 28.6535C299.28 29.1312 300.244 29.37 301.314 29.37Z" fill="white"/>
<path d="M316.024 18.9099C316.502 17.8973 317.209 17.1331 318.145 16.6172C319.1 16.1014 320.275 15.8435 321.67 15.8435V17.8209L321.182 17.7922C319.597 17.7922 318.355 18.2794 317.457 19.2538C316.559 20.2281 316.11 21.5941 316.11 23.3518V31.0321H314.075V15.9581H316.024V18.9099Z" fill="white"/>
<path d="M118.058 57.1681C116.014 57.1681 114.16 56.7287 112.498 55.8498C110.855 54.9519 109.556 53.7196 108.601 52.153C107.665 50.5673 107.197 48.7809 107.197 46.794C107.197 44.807 107.665 43.0302 108.601 41.4636C109.556 39.8779 110.855 38.6456 112.498 37.7667C114.16 36.8688 116.023 36.4198 118.086 36.4198C119.825 36.4198 121.392 36.7255 122.786 37.3369C124.2 37.9482 125.385 38.8271 126.34 39.9734L123.36 42.7245C122.003 41.1579 120.322 40.3746 118.316 40.3746C117.074 40.3746 115.966 40.6516 114.991 41.2057C114.017 41.7406 113.253 42.4953 112.699 43.4697C112.164 44.444 111.896 45.5521 111.896 46.794C111.896 48.0358 112.164 49.1439 112.699 50.1183C113.253 51.0926 114.017 51.8569 114.991 52.4109C115.966 52.9459 117.074 53.2133 118.316 53.2133C120.322 53.2133 122.003 52.4205 123.36 50.8347L126.34 53.5859C125.385 54.7513 124.2 55.6397 122.786 56.2511C121.373 56.8624 119.796 57.1681 118.058 57.1681Z" fill="white"/>
<path d="M139.726 57.1681C137.643 57.1681 135.761 56.7191 134.08 55.8212C132.418 54.9232 131.109 53.691 130.154 52.1243C129.218 50.5386 128.75 48.7618 128.75 46.794C128.75 44.8261 129.218 43.0589 130.154 41.4923C131.109 39.9065 132.418 38.6647 134.08 37.7667C135.761 36.8688 137.643 36.4198 139.726 36.4198C141.808 36.4198 143.68 36.8688 145.343 37.7667C147.005 38.6647 148.313 39.9065 149.269 41.4923C150.224 43.0589 150.702 44.8261 150.702 46.794C150.702 48.7618 150.224 50.5386 149.269 52.1243C148.313 53.691 147.005 54.9232 145.343 55.8212C143.68 56.7191 141.808 57.1681 139.726 57.1681ZM139.726 53.2133C140.91 53.2133 141.98 52.9459 142.935 52.4109C143.891 51.8569 144.636 51.0926 145.171 50.1183C145.725 49.1439 146.002 48.0358 146.002 46.794C146.002 45.5521 145.725 44.444 145.171 43.4697C144.636 42.4953 143.891 41.7406 142.935 41.2057C141.98 40.6516 140.91 40.3746 139.726 40.3746C138.541 40.3746 137.471 40.6516 136.516 41.2057C135.561 41.7406 134.806 42.4953 134.252 43.4697C133.717 44.444 133.449 45.5521 133.449 46.794C133.449 48.0358 133.717 49.1439 134.252 50.1183C134.806 51.0926 135.561 51.8569 136.516 52.4109C137.471 52.9459 138.541 53.2133 139.726 53.2133Z" fill="white"/>
<path d="M155.146 36.7637H159.788V53.0414H169.847V56.8242H155.146V36.7637Z" fill="white"/>
<path d="M173.397 36.7637H178.039V53.0414H188.098V56.8242H173.397V36.7637Z" fill="white"/>
<path d="M205.027 52.5255H195.713L193.936 56.8242H189.179L198.12 36.7637H202.705L211.675 56.8242H206.803L205.027 52.5255ZM203.565 49.0006L200.384 41.3203L197.203 49.0006H203.565Z" fill="white"/>
<path d="M229.442 46.3928C230.588 46.7558 231.486 47.3671 232.136 48.2269C232.785 49.0675 233.11 50.1087 233.11 51.3506C233.11 53.1082 232.422 54.4647 231.047 55.42C229.69 56.3561 227.703 56.8242 225.086 56.8242H214.712V36.7637H224.513C226.958 36.7637 228.83 37.2318 230.13 38.1679C231.448 39.1041 232.107 40.3746 232.107 41.9794C232.107 42.9538 231.868 43.8231 231.391 44.5873C230.932 45.3515 230.282 45.9533 229.442 46.3928ZM219.326 40.26V44.9885H223.94C225.086 44.9885 225.955 44.7879 226.547 44.3867C227.14 43.9855 227.436 43.3932 227.436 42.6099C227.436 41.8266 227.14 41.2439 226.547 40.8618C225.955 40.4606 225.086 40.26 223.94 40.26H219.326ZM224.742 53.328C225.965 53.328 226.882 53.1274 227.493 52.7261C228.124 52.3249 228.439 51.704 228.439 50.8634C228.439 49.2012 227.207 48.3701 224.742 48.3701H219.326V53.328H224.742Z" fill="white"/>
<path d="M247.295 57.1681C245.213 57.1681 243.331 56.7191 241.65 55.8212C239.987 54.9232 238.679 53.691 237.723 52.1243C236.787 50.5386 236.319 48.7618 236.319 46.794C236.319 44.8261 236.787 43.0589 237.723 41.4923C238.679 39.9065 239.987 38.6647 241.65 37.7667C243.331 36.8688 245.213 36.4198 247.295 36.4198C249.378 36.4198 251.25 36.8688 252.912 37.7667C254.574 38.6647 255.883 39.9065 256.838 41.4923C257.794 43.0589 258.271 44.8261 258.271 46.794C258.271 48.7618 257.794 50.5386 256.838 52.1243C255.883 53.691 254.574 54.9232 252.912 55.8212C251.25 56.7191 249.378 57.1681 247.295 57.1681ZM247.295 53.2133C248.48 53.2133 249.55 52.9459 250.505 52.4109C251.46 51.8569 252.205 51.0926 252.74 50.1183C253.294 49.1439 253.571 48.0358 253.571 46.794C253.571 45.5521 253.294 44.444 252.74 43.4697C252.205 42.4953 251.46 41.7406 250.505 41.2057C249.55 40.6516 248.48 40.3746 247.295 40.3746C246.111 40.3746 245.041 40.6516 244.086 41.2057C243.13 41.7406 242.376 42.4953 241.822 43.4697C241.287 44.444 241.019 45.5521 241.019 46.794C241.019 48.0358 241.287 49.1439 241.822 50.1183C242.376 51.0926 243.13 51.8569 244.086 52.4109C245.041 52.9459 246.111 53.2133 247.295 53.2133Z" fill="white"/>
<path d="M275.497 56.8242L271.628 51.2359H271.399H267.358V56.8242H262.716V36.7637H271.399C273.176 36.7637 274.714 37.0598 276.013 37.6521C277.331 38.2444 278.344 39.085 279.05 40.174C279.757 41.263 280.111 42.5526 280.111 44.0428C280.111 45.533 279.748 46.8226 279.022 47.9116C278.315 48.9815 277.302 49.803 275.984 50.3762L280.483 56.8242H275.497ZM275.411 44.0428C275.411 42.9156 275.048 42.0559 274.322 41.4636C273.596 40.8522 272.536 40.5465 271.141 40.5465H267.358V47.5391H271.141C272.536 47.5391 273.596 47.2334 274.322 46.622C275.048 46.0106 275.411 45.1509 275.411 44.0428Z" fill="white"/>
<path d="M297.956 52.5255H288.642L286.865 56.8242H282.108L291.049 36.7637H295.634L304.604 56.8242H299.732L297.956 52.5255ZM296.494 49.0006L293.313 41.3203L290.132 49.0006H296.494Z" fill="white"/>
<path d="M310.789 40.5465H304.369V36.7637H321.851V40.5465H315.431V56.8242H310.789V40.5465Z" fill="white"/>
<path d="M325.304 36.7637H329.946V56.8242H325.304V36.7637Z" fill="white"/>
<path d="M354.837 36.7637L346.154 56.8242H341.569L332.914 36.7637H337.929L344.033 51.0926L350.223 36.7637H354.837Z" fill="white"/>
<path d="M373 53.0987V56.8242H357.467V36.7637H372.627V40.4892H362.081V44.8452H371.395V48.4561H362.081V53.0987H373Z" fill="white"/>
<path d="M121.239 82.6163L117.37 77.028H117.141H113.1V82.6163H108.457V62.5558H117.141C118.918 62.5558 120.456 62.8519 121.755 63.4442C123.073 64.0364 124.086 64.8771 124.792 65.9661C125.499 67.0551 125.853 68.3447 125.853 69.8349C125.853 71.3251 125.49 72.6147 124.764 73.7037C124.057 74.7736 123.044 75.5951 121.726 76.1683L126.225 82.6163H121.239ZM121.153 69.8349C121.153 68.7077 120.79 67.8479 120.064 67.2557C119.338 66.6443 118.278 66.3386 116.883 66.3386H113.1V73.3312H116.883C118.278 73.3312 119.338 73.0255 120.064 72.4141C120.79 71.8027 121.153 70.943 121.153 69.8349Z" fill="white"/>
<path d="M146.019 78.8908V82.6163H130.486V62.5558H145.646V66.2813H135.1V70.6373H144.414V74.2482H135.1V78.8908H146.019Z" fill="white"/>
<path d="M157.259 82.9602C155.674 82.9602 154.136 82.75 152.645 82.3297C151.174 81.8903 149.99 81.3267 149.092 80.6389L150.668 77.1426C151.528 77.7731 152.55 78.2794 153.734 78.6615C154.919 79.0436 156.104 79.2347 157.288 79.2347C158.606 79.2347 159.581 79.0436 160.211 78.6615C160.842 78.2603 161.157 77.7349 161.157 77.0853C161.157 76.6077 160.966 76.216 160.584 75.9104C160.221 75.5856 159.743 75.3276 159.151 75.1366C158.578 74.9455 157.794 74.7354 156.801 74.5061C155.272 74.1431 154.021 73.7801 153.047 73.4171C152.072 73.0541 151.232 72.4714 150.525 71.669C149.837 70.8666 149.493 69.7967 149.493 68.4593C149.493 67.2939 149.808 66.2431 150.439 65.3069C151.069 64.3517 152.015 63.597 153.276 63.043C154.556 62.4889 156.113 62.2119 157.947 62.2119C159.227 62.2119 160.479 62.3647 161.701 62.6704C162.924 62.9761 163.994 63.4155 164.911 63.9887L163.478 67.5136C161.625 66.4628 159.772 65.9374 157.919 65.9374C156.619 65.9374 155.655 66.1476 155.024 66.5679C154.413 66.9882 154.107 67.5423 154.107 68.23C154.107 68.9178 154.46 69.4337 155.167 69.7776C155.893 70.1024 156.992 70.4272 158.463 70.7519C159.991 71.1149 161.243 71.4779 162.217 71.8409C163.192 72.2039 164.023 72.7771 164.71 73.5604C165.417 74.3437 165.771 75.4041 165.771 76.7414C165.771 77.8878 165.446 78.9385 164.796 79.8938C164.166 80.83 163.211 81.5751 161.931 82.1291C160.651 82.6832 159.094 82.9602 157.259 82.9602Z" fill="white"/>
<path d="M185.431 78.8908V82.6163H169.898V62.5558H185.058V66.2813H174.512V70.6373H183.826V74.2482H174.512V78.8908H185.431Z" fill="white"/>
<path d="M203.291 78.3176H193.978L192.201 82.6163H187.444L196.385 62.5558H200.97L209.94 82.6163H205.068L203.291 78.3176ZM201.83 74.7927L198.649 67.1124L195.468 74.7927H201.83Z" fill="white"/>
<path d="M225.758 82.6163L221.889 77.028H221.66H217.619V82.6163H212.977V62.5558H221.66C223.437 62.5558 224.975 62.8519 226.274 63.4442C227.592 64.0364 228.605 64.8771 229.312 65.9661C230.018 67.0551 230.372 68.3447 230.372 69.8349C230.372 71.3251 230.009 72.6147 229.283 73.7037C228.576 74.7736 227.563 75.5951 226.245 76.1683L230.744 82.6163H225.758ZM225.672 69.8349C225.672 68.7077 225.309 67.8479 224.583 67.2557C223.857 66.6443 222.797 66.3386 221.402 66.3386H217.619V73.3312H221.402C222.797 73.3312 223.857 73.0255 224.583 72.4141C225.309 71.8027 225.672 70.943 225.672 69.8349Z" fill="white"/>
<path d="M244.606 82.9602C242.562 82.9602 240.708 82.5208 239.046 81.6419C237.403 80.744 236.104 79.5117 235.149 77.9451C234.213 76.3593 233.744 74.573 233.744 72.586C233.744 70.5991 234.213 68.8223 235.149 67.2557C236.104 65.6699 237.403 64.4377 239.046 63.5588C240.708 62.6609 242.571 62.2119 244.634 62.2119C246.373 62.2119 247.94 62.5176 249.334 63.1289C250.748 63.7403 251.933 64.6192 252.888 65.7655L249.908 68.5166C248.551 66.95 246.87 66.1667 244.864 66.1667C243.622 66.1667 242.514 66.4437 241.539 66.9978C240.565 67.5327 239.801 68.2874 239.247 69.2617C238.712 70.2361 238.444 71.3442 238.444 72.586C238.444 73.8279 238.712 74.936 239.247 75.9104C239.801 76.8847 240.565 77.6489 241.539 78.203C242.514 78.7379 243.622 79.0054 244.864 79.0054C246.87 79.0054 248.551 78.2125 249.908 76.6268L252.888 79.378C251.933 80.5434 250.748 81.4318 249.334 82.0431C247.921 82.6545 246.344 82.9602 244.606 82.9602Z" fill="white"/>
<path d="M275.377 62.5558V82.6163H270.734V74.3915H261.621V82.6163H256.978V62.5558H261.621V70.4654H270.734V62.5558H275.377Z" fill="white"/>
<path d="M21.5865 74.9131C22.5419 73.2742 23.0994 71.3717 23.0994 69.335C23.0994 63.2148 18.1528 58.2538 12.0503 58.2538C11.9245 58.2538 11.8021 58.2686 11.6774 58.2732C9.9073 51.2017 10.4105 43.5562 13.5076 36.5484L6.64356 32.4637C2.27377 41.7696 1.66181 52.0552 4.31247 61.4304C2.27037 63.4421 1 66.238 1 69.335C1 75.4552 5.94661 80.4162 12.0491 80.4162C13.1847 80.4162 14.2805 80.2434 15.3118 79.924C17.5805 82.1255 20.1348 84.1008 22.9668 85.7851C28.3588 88.9936 34.1893 90.8211 40.0539 91.386L40.0641 83.3848C35.5821 82.8495 31.1398 81.3981 27.0136 78.9444C25.035 77.7658 23.2263 76.4088 21.5865 74.9131ZM53.4375 17.9286C56.0757 18.7003 58.6606 19.805 61.1311 21.2746C65.2573 23.7283 68.6559 26.9436 71.2725 30.6305L78.2692 26.7879C74.9646 21.8962 70.571 17.6399 65.1791 14.4315C61.8938 12.4767 58.4442 11.0412 54.9243 10.0831C53.9849 4.91876 49.4836 1 44.0633 1C38.6305 1 34.1236 4.9358 33.1978 10.1172C24.3947 12.5244 16.3691 17.8195 10.6904 25.6195L17.5556 29.7042C21.9854 23.9045 28.0517 19.8971 34.7027 17.9468C36.6564 21.0757 40.1128 23.1623 44.0644 23.1623C48.024 23.1623 51.4861 21.0677 53.4375 17.9286ZM83.8742 61.3543C86.4648 52.1166 85.7305 42.3697 82.0689 33.7718L75.0746 37.6144C77.6618 44.0949 78.2239 51.3324 76.4957 58.2675C76.4027 58.2652 76.3121 58.2527 76.2191 58.2527C70.1166 58.2527 65.17 63.2136 65.17 69.3339C65.17 71.3421 65.7117 73.2208 66.6421 74.8449C61.4212 79.6285 54.8609 82.5619 47.9968 83.3848L47.9866 91.3825C57.2033 90.4915 66.0256 86.5137 72.85 79.8865C73.913 80.2286 75.044 80.4162 76.2191 80.4162C82.3217 80.4162 87.2683 75.4552 87.2683 69.335C87.2694 66.1982 85.9628 63.3705 83.8742 61.3543Z" fill="white"/>
<ellipse cx="44.5453" cy="49.7241" rx="11.0861" ry="11.0861" fill="white"/>
</svg>
