<svg width="256" height="39" viewBox="0 0 256 39" fill="none" xmlns="http://www.w3.org/2000/svg">
<path fill-rule="evenodd" clip-rule="evenodd" d="M14.0025 6.47031V6.41991C14.0025 5.51003 13.8464 4.68004 13.5348 3.93014C13.223 3.18024 12.7766 2.53573 12.1952 1.99669C11.614 1.45751 10.9063 1.04059 10.0722 0.745528C9.23813 0.4506 8.29033 0.303102 7.2287 0.303102H0V17.9957H3.89241V12.688H6.84964C7.84365 12.688 8.77472 12.5572 9.64222 12.2963C10.5101 12.0351 11.2684 11.6432 11.9174 11.1209C12.5661 10.5987 13.0758 9.94999 13.4464 9.17465C13.8171 8.39965 14.0025 7.49814 14.0025 6.47031ZM10.0594 6.54635C10.0594 7.30461 9.78979 7.94082 9.25061 8.45456C8.71157 8.96865 7.9533 9.22565 6.97601 9.22565H3.89241V3.81671H6.89997C7.87753 3.81671 8.64821 4.04416 9.21269 4.4992C9.77717 4.95404 10.0594 5.61953 10.0594 6.49601V6.54635ZM32.4701 17.9957L28.1481 11.6768C29.2768 11.2557 30.1908 10.5944 30.8904 9.69284C31.5895 8.79133 31.9394 7.62451 31.9394 6.19232V6.14158C31.9394 4.30509 31.3536 2.87276 30.1824 1.84508C29.0113 0.817254 27.3727 0.303102 25.2665 0.303102H17.1786V17.9957H21.071V12.3342H24.1292L27.9207 17.9957H32.4701ZM27.9965 6.39473C27.9965 7.153 27.7393 7.75966 27.2254 8.21449C26.7116 8.66954 25.9742 8.89692 25.0139 8.89692H21.071V3.81671H24.9381C25.8984 3.81671 26.6483 4.02722 27.1875 4.44846C27.7264 4.86983 27.9965 5.50159 27.9965 6.3444V6.39473ZM49.1935 17.9957V14.5333H39.5887V10.8177H47.9298V7.35489H39.5887V3.7657H49.0671V0.303102H35.747V17.9957H49.1935ZM65.7652 12.764V12.7135C65.7652 11.9383 65.6429 11.2729 65.3986 10.7166C65.1543 10.1605 64.7879 9.67618 64.3076 9.26352C63.8273 8.85065 63.2335 8.49668 62.5341 8.20203C61.8349 7.9071 61.0346 7.64159 60.1372 7.40584C59.379 7.20348 58.7511 7.02657 58.25 6.87496C57.753 6.72334 57.3613 6.56302 57.0706 6.39468C56.7842 6.22599 56.586 6.03646 56.4765 5.82594C56.3671 5.61522 56.3123 5.36679 56.3123 5.0803V5.02996C56.3123 4.59165 56.5018 4.22541 56.881 3.93035C57.26 3.63549 57.8288 3.48799 58.5871 3.48799C59.3454 3.48799 60.1034 3.64385 60.8617 3.95544C61.62 4.26745 62.3953 4.69293 63.187 5.23191L65.2091 2.30012C64.2992 1.57573 63.3007 1.01961 62.2141 0.631974C61.1272 0.244612 59.9351 0.0504162 58.6374 0.0504162C57.7276 0.0504162 56.8934 0.177137 56.1397 0.429618C55.3857 0.682511 54.7324 1.04484 54.1891 1.51662C53.6458 1.98853 53.2246 2.54856 52.9214 3.19718C52.6222 3.84621 52.4706 4.57492 52.4706 5.38352V5.43447C52.4706 6.31054 52.6094 7.0433 52.8875 7.63322C53.1655 8.2228 53.5613 8.71577 54.0671 9.11191C54.5724 9.50763 55.1919 9.84062 55.9164 10.1102C56.6451 10.3798 57.4539 10.6239 58.3511 10.843C59.0925 11.0284 59.6989 11.2055 60.1627 11.3738C60.6259 11.5424 60.988 11.7109 61.2533 11.8794C61.5146 12.0479 61.6917 12.2291 61.7842 12.4229C61.8771 12.6165 61.9233 12.8398 61.9233 13.0927V13.143C61.9233 13.6656 61.7 14.0743 61.2533 14.3688C60.807 14.6639 60.1794 14.8112 59.3706 14.8112C58.3594 14.8112 57.4288 14.6176 56.5776 14.23C55.7268 13.8423 54.897 13.3202 54.088 12.6628L51.7881 15.4178C52.8496 16.3783 54.0291 17.0902 55.3266 17.5534C56.6239 18.0171 57.9466 18.2488 59.2948 18.2488C60.2552 18.2488 61.1312 18.1265 61.9191 17.8822C62.7069 17.638 63.3893 17.2841 63.9581 16.8207C64.5266 16.3573 64.969 15.7844 65.2892 15.102C65.605 14.4197 65.7652 13.6403 65.7652 12.764ZM82.8426 3.89229V0.303102H68.1831V3.89229H73.5666V17.9957H77.4588V3.89229H82.8426ZM104.141 9.14967V9.09893C104.141 7.83529 103.909 6.65174 103.446 5.54808C102.982 4.444 102.334 3.48379 101.499 2.66648C100.665 1.84931 99.6754 1.20062 98.5298 0.720347C97.3837 0.24007 96.1285 0 94.7635 0C93.3988 0 92.1392 0.24007 90.9848 0.720347C89.8308 1.20062 88.8367 1.85768 88.0027 2.69172C87.1687 3.52582 86.5153 4.49474 86.0438 5.59841C85.572 6.70207 85.3359 7.88569 85.3359 9.14967V9.20021C85.3359 10.4639 85.5676 11.6475 86.0311 12.7513C86.4945 13.855 87.1432 14.8154 87.9773 15.6327C88.8113 16.4497 89.8013 17.0985 90.9469 17.5789C92.0929 18.0591 93.3483 18.2992 94.7132 18.2992C96.0779 18.2992 97.3375 18.0591 98.4919 17.5789C99.6459 17.0985 100.64 16.4413 101.474 15.6073C102.308 14.7732 102.961 13.8043 103.433 12.7006C103.905 11.5971 104.141 10.4133 104.141 9.14967ZM100.071 9.20026C100.071 9.95852 99.9409 10.6704 99.6796 11.3359C99.4185 12.0016 99.0561 12.5869 98.5927 13.0927C98.1293 13.598 97.5692 13.9938 96.912 14.2805C96.2548 14.567 95.5389 14.7101 94.7635 14.7101C93.9716 14.7101 93.2513 14.5626 92.6026 14.2678C91.9538 13.973 91.3893 13.5726 90.909 13.0672C90.4291 12.5619 90.0582 11.9721 89.797 11.298C89.5358 10.6239 89.4053 9.90798 89.4053 9.14972V9.09898C89.4053 8.34078 89.5358 7.62873 89.797 6.96337C90.0582 6.29768 90.4207 5.71221 90.8839 5.20663C91.3474 4.70126 91.9035 4.30526 92.5521 4.01876C93.2007 3.73248 93.9211 3.58923 94.7131 3.58923C95.4881 3.58923 96.2042 3.73652 96.8616 4.03124C97.5186 4.32631 98.0873 4.72649 98.5676 5.23187C99.0478 5.73765 99.4185 6.32717 99.6796 7.0013C99.9409 7.67542 100.071 8.39145 100.071 9.14972V9.20026ZM123.619 17.9957V0.303102H119.778V11.197L111.487 0.303102H107.898V17.9957H111.74V6.74823L120.308 17.9957H123.619ZM135.085 12.0059V8.31585H127.301V12.0059H135.085ZM164.244 0.303219H160.175L156.51 12.2836L152.542 0.252888H149.205L145.237 12.2836L141.572 0.303219H137.402L143.443 18.1222H146.83L150.823 6.5462L154.817 18.1222H158.203L164.244 0.303219ZM180.866 17.9957V14.5333H171.262V10.8177H179.603V7.35489H171.262V3.7657H180.74V0.303102H167.42V17.9957H180.866ZM199.941 17.9957L195.619 11.6768C196.747 11.2557 197.661 10.5944 198.361 9.69284C199.06 8.79133 199.41 7.62451 199.41 6.19232V6.14158C199.41 4.30509 198.824 2.87276 197.653 1.84508C196.482 0.817254 194.843 0.303102 192.737 0.303102H184.649V17.9957H188.542V12.3342H191.6L195.391 17.9957H199.941ZM195.467 6.39473C195.467 7.153 195.21 7.75966 194.696 8.21449C194.182 8.66954 193.445 8.89692 192.484 8.89692H188.542V3.81671H192.408C193.369 3.81671 194.119 4.02722 194.658 4.44846C195.197 4.86983 195.467 5.50159 195.467 6.3444V6.39473ZM218.939 17.9957V0.303102H215.097V11.197L206.807 0.303102H203.217V17.9957H207.059V6.74823L215.628 17.9957H218.939ZM236.926 17.9957V14.5333H227.321V10.8177H235.662V7.35489H227.321V3.7657H236.8V0.303102H223.479V17.9957H236.926ZM256 17.9957L251.678 11.6768C252.807 11.2557 253.721 10.5944 254.42 9.69284C255.119 8.79133 255.469 7.62451 255.469 6.19232V6.14158C255.469 4.30509 254.883 2.87276 253.712 1.84508C252.541 0.817254 250.903 0.303102 248.796 0.303102H240.708V17.9957H244.601V12.3342H247.659L251.45 17.9957H256ZM251.526 6.39473C251.526 7.153 251.269 7.75966 250.755 8.21449C250.241 8.66954 249.504 8.89692 248.544 8.89692H244.601V3.81671H248.468C249.428 3.81671 250.178 4.02722 250.717 4.44846C251.256 4.86983 251.526 5.50159 251.526 6.3444V6.39473Z" fill="white"/>
<path fill-rule="evenodd" clip-rule="evenodd" d="M79.4511 38.4047H82.1875L86.505 27.6871H83.2669L80.8499 34.4219L78.4328 27.6871H75.1336L79.4511 38.4047ZM90.4165 38.3289H99.0517V35.8204H93.3354V34.133H98.4433V31.8071H93.3354V30.1956H98.9755V27.6871H90.4165V38.3289ZM103.434 38.3289H106.353V32.4909L110.899 38.3289H113.483V27.6871H110.564V33.3122L106.186 27.6871H103.434V38.3289ZM120.845 38.3289H123.794V30.2713H126.987V27.6871H117.652V30.2713H120.845V38.3289ZM135.946 38.5264C138.971 38.5264 140.932 37.0215 140.932 33.5855V27.6871H137.937V33.677C137.937 35.167 137.162 35.8661 135.976 35.8661C134.79 35.8661 134.015 35.1364 134.015 33.6008V27.6871H131.02V33.6617C131.02 36.9912 132.92 38.5264 135.946 38.5264ZM145.557 38.3289H148.507V35.1059H149.799L151.943 38.3289H155.348L152.809 34.6194C154.132 34.0571 154.998 32.9775 154.998 31.3507V31.3206C154.998 30.2713 154.679 29.4507 154.056 28.8425C153.341 28.1128 152.216 27.6871 150.59 27.6871H145.557V38.3289ZM148.507 32.7949V30.2408H150.438C151.426 30.2408 152.034 30.6665 152.034 31.5028V31.5331C152.034 32.3086 151.456 32.7949 150.453 32.7949H148.507ZM159.366 38.3289H168.001V35.8204H162.285V34.133H167.393V31.8071H162.285V30.1956H167.925V27.6871H159.366V38.3289ZM176.564 38.5112C179.148 38.5112 180.866 37.219 180.866 35.0451V35.0146C180.866 33.023 179.346 32.2325 176.899 31.7005C175.424 31.3659 175.059 31.1531 175.059 30.6666V30.6362C175.059 30.256 175.409 29.9522 176.123 29.9522C177.066 29.9522 178.13 30.317 179.103 31.0011L180.578 28.9183C179.422 27.9912 178.008 27.5046 176.199 27.5046C173.645 27.5046 172.079 28.9335 172.079 30.9099V30.9402C172.079 33.1293 173.828 33.7681 176.093 34.2849C177.537 34.6192 177.887 34.8626 177.887 35.3032V35.3338C177.887 35.79 177.461 36.0634 176.671 36.0634C175.439 36.0634 174.269 35.6226 173.22 34.7866L171.578 36.7476C172.885 37.9182 174.679 38.5112 176.564 38.5112Z" fill="white"/>
<path fill-rule="evenodd" clip-rule="evenodd" d="M0 32.5369H67.4583V35.0454H0V32.5369ZM188.542 32.5369H256V35.0453H188.542V32.5369Z" fill="white"/>
</svg>
